<svg xmlns="http://www.w3.org/2000/svg" viewBox="0 0 532.54 115.54"><defs><style>.cls-1{fill:#3bf278;}</style></defs><title>Asset 9</title><g id="Layer_2" data-name="Layer 2"><g id="Layer_1-2" data-name="Layer 1"><path class="cls-1" d="M121.39,35H94.78V56.06h23.37v8.2H94.78v26.8H85V26.78h36.43Z"/><path class="cls-1" d="M161.73,42.7h9.35V91.06h-9.35v-8.3q-3.81,8.86-15.07,8.87-7.14,0-11.35-4.24T131.12,75.7v-33h9.44V73.41q0,5,2.43,7.59c1.62,1.75,4.06,2.62,7.3,2.62a10.32,10.32,0,0,0,8.15-3.82Q161.74,76,161.73,69Z"/><path class="cls-1" d="M193.59,42.7V51q4.29-9,15.07-9,7.16,0,11.35,4.38t4.19,11.93V91.06h-9.34V60.54c0-3.37-.85-5.95-2.53-7.73a9.32,9.32,0,0,0-7.11-2.67,10.69,10.69,0,0,0-8.1,3.87q-3.54,3.85-3.53,10.82V91.06h-9.35V42.7Z"/><path class="cls-1" d="M269.5,23.63H279V91.06H269.5V83.71a16.3,16.3,0,0,1-14.68,8q-9.65,0-15.17-7.21t-5.53-18q0-10.78,5.82-17.65A18.87,18.87,0,0,1,255.06,42a16.25,16.25,0,0,1,14.44,8Zm-25.75,43.2q0,7.73,3.58,12.21a11.09,11.09,0,0,0,9.06,4.48,12.08,12.08,0,0,0,9.3-4.19q3.81-4.2,3.81-12.64t-3.95-12.45a12.61,12.61,0,0,0-9.25-4,11.11,11.11,0,0,0-8.92,4.43Q243.75,59.11,243.75,66.83Z"/><path class="cls-1" d="M314,91.53q-11.25,0-17.93-6.77t-6.67-18.07q0-11.3,6.1-17.93A20.09,20.09,0,0,1,311,42.13q9.35,0,14.79,5.77t5.43,16.64a35.75,35.75,0,0,1-.57,6.2H298.88a14.18,14.18,0,0,0,5.34,9.64q4.38,3.33,11.59,3.33a20.87,20.87,0,0,0,12.35-3.62v8.39Q322.82,91.54,314,91.53Zm8.11-28.13V61.68a13.48,13.48,0,0,0-3-8.63,9.66,9.66,0,0,0-7.72-3.19,11.33,11.33,0,0,0-8.39,3.48q-3.43,3.48-4.3,10.06Z"/><path class="cls-1" d="M351.53,42.7v8.49q3.53-9,12.68-9a17.28,17.28,0,0,1,3,.28v9.16a11.34,11.34,0,0,0-4.49-.86,9.56,9.56,0,0,0-8,4.29,16.78,16.78,0,0,0-3.14,10.21V91.06h-9.35V42.7Z"/><path class="cls-1" d="M384.14,23.63V50.05a16.27,16.27,0,0,1,14.45-8,18.87,18.87,0,0,1,15.12,6.86q5.82,6.87,5.82,17.65t-5.54,18q-5.52,7.22-15.16,7.21a16.32,16.32,0,0,1-14.69-8v7.35H374.7V23.63Zm0,43.06q0,8.44,3.82,12.64a12,12,0,0,0,9.25,4.19A11.17,11.17,0,0,0,406.27,79q3.62-4.53,3.62-12.2t-3.62-12.12a11.13,11.13,0,0,0-8.92-4.43,12.6,12.6,0,0,0-9.25,4Q384.14,58.24,384.14,66.69Z"/><path class="cls-1" d="M473.32,66.93q0,10.88-6.15,17.93t-16.89,7.06q-10.72,0-16.83-7t-6.1-17.74q0-10.77,6.29-18t17-7.2q10.68,0,16.69,7T473.32,66.93Zm-9.83.09q0-7.44-3.24-12.25T450.47,50a11.41,11.41,0,0,0-10,4.91A20.65,20.65,0,0,0,437.07,67a20.24,20.24,0,0,0,3.53,12.11A11.43,11.43,0,0,0,450.43,84a11.17,11.17,0,0,0,9.68-4.77Q463.49,74.46,463.49,67Z"/><path class="cls-1" d="M484.19,91.06V23.63h9.44V91.06Z"/><path class="cls-1" d="M519.29,50V76.56q0,7,6.67,7a10.36,10.36,0,0,0,6.58-2.09v8.39a16,16,0,0,1-7.72,1.71q-15,0-15-15.16V50h-7.53V42.7h7.53V30.88h9.45V42.7H532V50Z"/><polygon class="cls-1" points="73.03 57.29 41.08 48.13 62.34 0 0 58.26 31.94 67.41 10.69 115.55 73.03 57.29"/></g></g></svg>